HIERARCHY
ROOT Hips
{
 OFFSET 0.000000 0.000000 0.000000
 CHANNELS 6 Xposition Yposition Zposition Yrotation Xrotation Zrotation
 JOINT Chest
 {
  OFFSET 0.000000 9.585900 0.002600
  CHANNELS 3 Yrotation Xrotation Zrotation
  JOINT Chest2
  {
   OFFSET 0.000000 9.601200 -0.005300
   CHANNELS 3 Yrotation Xrotation Zrotation
   JOINT Chest3
   {
    OFFSET 0.000000 9.561800 0.000000
    CHANNELS 3 Yrotation Xrotation Zrotation
    JOINT Chest4
    {
     OFFSET 0.000000 9.552100 0.000000
     CHANNELS 3 Yrotation Xrotation Zrotation
     JOINT Neck
     {
      OFFSET 0.000000 14.453000 0.000000
      CHANNELS 3 Yrotation Xrotation Zrotation
      JOINT Head
      {
       OFFSET 0.000000 8.936500 -0.011300
       CHANNELS 3 Yrotation Xrotation Zrotation
       End Site
       {
        OFFSET 0.000000 17.073600 -0.006000
       }
      }
     }
     JOINT RightCollar
     {
      OFFSET -2.921100 9.558500 0.000000
      CHANNELS 3 Yrotation Xrotation Zrotation
      JOINT RightShoulder
      {
       OFFSET -13.519700 0.000000 0.000000
       CHANNELS 3 Yrotation Xrotation Zrotation
       JOINT RightElbow
       {
        OFFSET 0.000000 -29.696600 0.000000
        CHANNELS 3 Yrotation Xrotation Zrotation
        JOINT RightWrist
        {
         OFFSET 0.000000 -24.004700 0.000000
         CHANNELS 3 Yrotation Xrotation Zrotation
         End Site
         {
          OFFSET 0.000000 -17.728500 0.000000
         }
        }
       }
      }
     }
     JOINT LeftCollar
     {
      OFFSET 2.921100 9.558500 0.000000
      CHANNELS 3 Yrotation Xrotation Zrotation
      JOINT LeftShoulder
      {
       OFFSET 13.519700 0.000000 0.000000
       CHANNELS 3 Yrotation Xrotation Zrotation
       JOINT LeftElbow
       {
        OFFSET 0.000000 -29.696600 0.000000
        CHANNELS 3 Yrotation Xrotation Zrotation
        JOINT LeftWrist
        {
         OFFSET 0.000000 -24.004700 0.000000
         CHANNELS 3 Yrotation Xrotation Zrotation
         End Site
         {
          OFFSET 0.000000 -17.728500 0.000000
         }
        }
       }
      }
     }
    }
   }
  }
 }
 JOINT RightHip
 {
  OFFSET -7.771700 -0.012900 -0.001300
  CHANNELS 3 Yrotation Xrotation Zrotation
  JOINT RightKnee
  {
   OFFSET 0.000000 -40.869800 0.001200
   CHANNELS 3 Yrotation Xrotation Zrotation
   JOINT RightAnkle
   {
    OFFSET 0.000000 -39.717900 0.002100
    CHANNELS 3 Yrotation Xrotation Zrotation
    JOINT RightToe
    {
     OFFSET 0.000000 -4.965400 11.033500
     CHANNELS 3 Yrotation Xrotation Zrotation
     End Site
     {
      OFFSET 0.000000 -1.423100 5.872300
     }
    }
   }
  }
 }
 JOINT LeftHip
 {
  OFFSET 7.771700 -0.012900 -0.001300
  CHANNELS 3 Yrotation Xrotation Zrotation
  JOINT LeftKnee
  {
   OFFSET 0.000000 -40.869800 0.001200
   CHANNELS 3 Yrotation Xrotation Zrotation
   JOINT LeftAnkle
   {
    OFFSET 0.000000 -39.717900 0.002100
    CHANNELS 3 Yrotation Xrotation Zrotation
    JOINT LeftToe
    {
     OFFSET 0.000000 -4.965400 11.033500
     CHANNELS 3 Yrotation Xrotation Zrotation
     End Site
     {
      OFFSET 0.000000 -1.423100 5.872300
     }
    }
   }
  }
 }
}
MOTION
Frames: 11
Frame Time: 0.008333
0.000000 85.388000 0.000000 0.000000 -5.767877 0.000000 0.000000 11.653817 0.000000 0.000000 -5.885947 0.000000 0.000000 -0.000000 0.000000 0.000000 -0.000000 0.000000 0.000000 12.528835 0.000000 0.000000 0.711642 0.000000 0.000000 -0.000000 0.000000 0.000000 0.000000 -90.000000 0.000000 -2.309062 0.000000 0.000000 2.309062 0.000000 0.000000 -0.000000 0.000000 0.000000 -0.000000 90.000000 0.000000 -2.309062 0.000000 0.000000 2.309062 0.000000 0.000000 8.520406 0.000000 0.000000 1.905762 0.000000 -0.000000 -4.658285 0.000000 0.000000 -0.000000 0.000000 0.000000 8.520406 0.000000 0.000000 1.905762 0.000000 -0.000000 -4.658285 0.000000 0.000000 -0.000000 0.000000
17.656987 50.017598 55.329186 175.326738 -29.236270 -8.000574 5.453510 20.673983 9.003138 0.598365 2.932084 1.041022 0.956919 4.768256 1.665764 4.483044 17.480407 6.846770 -0.687310 17.906780 2.497186 -2.121152 -2.483618 4.813563 -8.362268 -4.322136 -12.576114 14.373174 -7.794863 -2.356140 -147.968421 -58.209652 156.946950 -4.820618 -7.337680 46.493312 -8.894361 -6.367685 3.131767 -6.814297 -11.897547 2.663401 115.715624 -55.356356 -140.344201 23.078423 15.563842 -53.325699 -3.542226 -50.179447 10.941867 -139.130753 83.800433 -127.295565 -1.115479 -15.835996 -4.194693 -0.231552 0.810638 -0.135047 -10.894896 -54.904458 17.526662 -154.618401 80.756698 -162.589456 -0.922840 -16.794911 8.285390 -0.195660 -0.376259 0.047109
17.663990 50.024327 55.359061 175.276574 -29.203553 -8.010897 5.525368 20.605438 9.069389 0.588039 2.948123 1.030761 0.981112 4.773295 1.687723 4.528730 17.485080 6.873870 -0.732471 17.880288 2.476527 -2.114240 -2.554844 4.790025 -8.334960 -4.335892 -12.529104 14.276769 -7.669756 -2.330872 -148.265703 -58.357721 157.070538 -4.741326 -7.357157 46.329789 -8.969004 -6.406431 3.092150 -7.064291 -11.840019 2.625061 115.778412 -55.615520 -140.292270 22.773127 15.653210 -53.319908 -3.556072 -50.213198 10.991343 -138.707263 83.838113 -126.836566 -1.140244 -15.766286 -4.243805 -0.188010 0.796709 -0.118169 -10.921914 -54.927378 17.608200 -154.446477 80.791015 -162.418454 -0.894020 -16.802178 8.248639 -0.212969 -0.367242 0.045227
17.659483 50.031711 55.387199 175.305752 -29.174599 -7.981912 5.502012 20.559116 9.051843 0.593002 2.953711 1.034599 0.989006 4.781874 1.693988 4.555751 17.478037 6.885668 -0.743425 17.843322 2.459108 -2.130270 -2.623661 4.762814 -8.314775 -4.347751 -12.494275 14.187271 -7.550394 -2.283754 -148.561545 -58.492748 157.209992 -4.657948 -7.382745 46.139430 -8.983312 -6.511923 3.013072 -7.357695 -11.719908 2.626668 116.011356 -55.927679 -140.365376 22.532714 15.650724 -53.341427 -3.573002 -50.240970 10.931129 -138.645641 83.866622 -126.773093 -1.144644 -15.721649 -4.261573 -0.178060 0.777049 -0.116583 -10.904921 -54.951683 17.545447 -154.391331 80.855566 -162.361954 -0.912678 -16.771790 8.209261 -0.192645 -0.394812 0.030336
17.656280 50.043040 55.409471 175.317741 -29.190983 -7.940647 5.535840 20.532652 9.067200 0.607952 2.950088 1.043906 0.954792 4.807971 1.677696 4.571715 17.467020 6.890274 -0.740483 17.792409 2.437199 -2.169523 -2.687332 4.733202 -8.293204 -4.364880 -12.466980 14.080512 -7.428969 -2.224788 -148.847863 -58.614411 157.361621 -4.575888 -7.410190 45.932098 -8.996194 -6.597629 2.937760 -7.637412 -11.629347 2.630993 116.425508 -56.286607 -140.575043 22.360900 15.566411 -53.370955 -3.560057 -50.225706 10.863503 -138.638288 83.891288 -126.769599 -1.145643 -15.680898 -4.265251 -0.179577 0.755152 -0.124646 -10.845029 -54.927195 17.456499 -154.360743 80.911708 -162.329719 -0.926864 -16.757992 8.176961 -0.188667 -0.376944 0.048613
17.649321 50.055029 55.427244 175.348914 -29.222919 -7.874610 5.528253 20.540322 9.027714 0.602488 2.953083 1.039322 0.954653 4.811430 1.680256 4.592304 17.450118 6.895431 -0.760445 17.749745 2.411731 -2.199642 -2.766519 4.694438 -8.269550 -4.392701 -12.449106 13.959182 -7.303431 -2.153004 -149.112469 -58.724386 157.516875 -4.500875 -7.433698 45.714145 -9.009038 -6.674309 2.865239 -7.895369 -11.558625 2.629508 116.979144 -56.685074 -140.897954 22.248566 15.428165 -53.395522 -3.514332 -50.196970 10.741854 -138.671675 83.907008 -126.812872 -1.156518 -15.622338 -4.271900 -0.169873 0.705528 -0.113088 -10.736192 -54.892530 17.289163 -154.390355 80.971490 -162.347624 -0.970432 -16.747577 8.144846 -0.152013 -0.376108 0.051388
17.647536 50.065155 55.446277 175.357507 -29.237016 -7.820043 5.540995 20.527763 9.000339 0.593286 2.959092 1.036000 0.968879 4.802448 1.689481 4.604331 17.429832 6.891689 -0.786994 17.704648 2.384813 -2.241483 -2.849927 4.655211 -8.245833 -4.428868 -12.437134 13.831928 -7.177141 -2.069537 -149.362061 -58.826956 157.678328 -4.440728 -7.454108 45.492248 -9.012689 -6.755204 2.790187 -8.125640 -11.493739 2.620806 117.583744 -57.104648 -141.279607 22.169951 15.265542 -53.404999 -3.513838 -50.190615 10.685981 -138.760249 83.927394 -126.924567 -1.171890 -15.575283 -4.287778 -0.169099 0.672996 -0.110766 -10.637778 -54.873329 17.153655 -154.473437 81.032806 -162.407961 -0.986884 -16.734370 8.118449 -0.146066 -0.382969 0.036591
17.652922 50.075109 55.462641 175.359625 -29.254939 -7.795617 5.562412 20.520074 8.997676 0.572205 2.975313 1.029016 1.007983 4.774770 1.702230 4.608587 17.399505 6.880319 -0.819635 17.659233 2.358183 -2.294614 -2.933835 4.618430 -8.221531 -4.468653 -12.426231 13.705298 -7.052385 -1.976369 -149.601716 -58.921234 157.846525 -4.398796 -7.471009 45.273235 -9.005442 -6.833617 2.715348 -8.314391 -11.434412 2.605029 118.170651 -57.519135 -141.673310 22.099937 15.110187 -53.387394 -3.515103 -50.174761 10.659845 -138.910138 83.968412 -127.060789 -1.222715 -15.536254 -4.329656 -0.130387 0.645532 -0.084584 -10.591933 -54.849970 17.092830 -154.489531 81.073553 -162.411095 -0.984308 -16.713937 8.105996 -0.143628 -0.423176 -0.001834
17.660370 50.083519 55.476041 175.363716 -29.269499 -7.775931 5.563094 20.526895 8.983199 0.632258 2.905352 1.039094 0.982866 4.803370 1.701330 4.607800 17.366756 6.862917 -0.857863 17.614365 2.332775 -2.358485 -3.016521 4.585734 -8.197086 -4.509862 -12.411838 13.583213 -6.930249 -1.881833 -149.812516 -59.002804 157.999677 -4.370132 -7.483161 45.063825 -8.986830 -6.909744 2.640975 -8.462482 -11.373268 2.589944 118.706515 -57.907872 -142.045810 22.022826 14.980446 -53.329203 -3.525538 -50.162203 10.646646 -139.040198 83.997948 -127.185612 -1.256211 -15.504859 -4.364436 -0.110895 0.622960 -0.070219 -10.557003 -54.831896 17.045639 -154.498211 81.106710 -162.407436 -0.985530 -16.687318 8.097670 -0.144119 -0.440437 -0.017675
17.667828 50.089659 55.486623 175.375743 -29.275412 -7.753425 5.571570 20.491532 8.969414 0.642318 2.878843 1.031066 1.002853 4.753458 1.691696 4.571268 17.435175 6.881776 -0.888990 17.519339 2.281728 -2.435018 -3.100875 4.559208 -8.150172 -4.604135 -12.409474 13.469137 -6.811611 -1.793418 -149.981432 -59.071612 158.120456 -4.355286 -7.496151 44.867249 -8.934515 -7.036854 2.553129 -8.577198 -11.305311 2.580525 119.175099 -58.264263 -142.374740 21.937280 14.873104 -53.212498 -3.542400 -50.158283 10.631603 -139.132210 84.011284 -127.284374 -1.269391 -15.483244 -4.388019 -0.106206 0.605013 -0.062591 -10.524792 -54.823320 16.988024 -154.556625 81.141044 -162.448038 -0.997753 -16.659611 8.078872 -0.138397 -0.449007 -0.020714
17.670619 50.093836 55.492063 175.388267 -29.284155 -7.697177 5.583030 20.431909 8.919444 0.622439 2.885741 1.019614 1.011552 4.715342 1.679478 4.577045 17.396482 6.858576 -0.948465 17.493672 2.272748 -2.524527 -3.188435 4.540479 -8.138393 -4.622104 -12.369183 13.363045 -6.693662 -1.712958 -150.116641 -59.125920 158.212398 -4.360746 -7.514327 44.684730 -8.908399 -7.081910 2.504639 -8.665312 -11.230898 2.575989 119.583385 -58.585595 -142.658774 21.852301 14.787846 -53.015279 -3.521047 -50.155462 10.566092 -139.199875 84.009660 -127.370770 -1.277569 -15.442243 -4.402479 -0.095483 0.562939 -0.053098 -10.455264 -54.814502 16.870850 -154.655965 81.176286 -162.532826 -1.029876 -16.650552 8.066213 -0.112654 -0.447082 -0.030218
